<?xml version="1.0" standalone="no"?>
<!DOCTYPE svg PUBLIC "-//W3C//DTD SVG 20010904//EN"
 "http://www.w3.org/TR/2001/REC-SVG-20010904/DTD/svg10.dtd">
<svg version="1.0" xmlns="http://www.w3.org/2000/svg"
 width="523.000000pt" height="436.000000pt" viewBox="0 0 523.000000 436.000000"
 preserveAspectRatio="xMidYMid meet">

<g transform="translate(0.000000,436.000000) scale(0.100000,-0.100000)"
fill="#000000" stroke="none">
<path d="M242 4101 c8 -25 604 -1051 609 -1051 4 0 118 194 255 430 l248 430
1300 0 1301 -1 245 -429 c135 -236 249 -428 254 -427 7 3 529 896 602 1030
l15 27 -2417 0 c-1514 0 -2414 -4 -2412 -9z"/>
<path d="M1470 3365 l0 -95 170 0 170 0 2 -1154 3 -1154 23 -25 c32 -34 64
-40 107 -23 69 29 65 -39 65 1221 l0 1135 270 0 270 0 0 -1435 c0 -1548 -2
-1481 51 -1519 27 -19 58 -20 92 -5 55 25 52 -65 57 1504 l5 1450 265 0 265 0
5 -1156 c4 -941 7 -1159 18 -1172 8 -9 28 -21 46 -27 39 -12 72 -3 101 30 20
22 20 40 25 1174 l5 1151 173 3 172 2 0 95 0 95 -1180 0 -1180 0 0 -95z"/>
</g>
</svg>
