<?xml version="1.0" standalone="no"?>
<!DOCTYPE svg PUBLIC "-//W3C//DTD SVG 20010904//EN"
 "http://www.w3.org/TR/2001/REC-SVG-20010904/DTD/svg10.dtd">
<svg version="1.0" xmlns="http://www.w3.org/2000/svg"
 width="523.000000pt" height="436.000000pt" viewBox="0 0 523.000000 436.000000"
 preserveAspectRatio="xMidYMid meet">

<g transform="translate(0.000000,436.000000) scale(0.100000,-0.100000)"
fill="#000000" stroke="none">
<path d="M0 2180 l0 -2180 2615 0 2615 0 0 2180 0 2180 -2615 0 -2615 0 0
-2180z m5056 1903 c-73 -134 -595 -1027 -602 -1030 -5 -1 -119 191 -254 427
l-245 429 -1301 1 -1300 0 -248 -430 c-137 -236 -251 -430 -255 -430 -5 0
-601 1026 -609 1051 -2 5 898 9 2412 9 l2417 0 -15 -27z m-1226 -718 l0 -95
-172 -2 -173 -3 -5 -1151 c-5 -1134 -5 -1152 -25 -1174 -29 -33 -62 -42 -101
-30 -18 6 -38 18 -46 27 -11 13 -14 231 -18 1172 l-5 1156 -265 0 -265 0 -5
-1450 c-5 -1569 -2 -1479 -57 -1504 -34 -15 -65 -14 -92 5 -53 38 -51 -29 -51
1519 l0 1435 -270 0 -270 0 0 -1135 c0 -1260 4 -1192 -65 -1221 -43 -17 -75
-11 -107 23 l-23 25 -3 1154 -2 1154 -170 0 -170 0 0 95 0 95 1180 0 1180 0 0
-95z"/>
</g>
</svg>
