<?xml version="1.0" standalone="no"?>
<!DOCTYPE svg PUBLIC "-//W3C//DTD SVG 20010904//EN"
 "http://www.w3.org/TR/2001/REC-SVG-20010904/DTD/svg10.dtd">
<svg version="1.0" xmlns="http://www.w3.org/2000/svg"
 width="395.000000pt" height="492.000000pt" viewBox="0 0 395.000000 492.000000"
 preserveAspectRatio="xMidYMid meet">

<g transform="translate(0.000000,492.000000) scale(0.100000,-0.100000)"
fill="#000000" stroke="none">
<path d="M1197 4833 c-3 -5 125 -657 284 -1451 l288 -1443 117 -187 c190 -304
259 -412 264 -412 9 0 701 3480 695 3490 -7 12 -1641 14 -1648 3z"/>
<path d="M1101 3627 c-143 -774 -271 -1461 -277 -1489 l-6 -28 84 36 c284 122
420 137 577 64 35 -17 65 -29 66 -28 1 2 -49 275 -111 608 -62 333 -141 759
-176 948 -34 188 -65 342 -68 342 -3 0 -43 -204 -89 -453z"/>
<path d="M2845 4059 c-3 -13 -52 -292 -110 -619 -57 -327 -169 -964 -249
-1415 -80 -451 -146 -831 -148 -845 -2 -20 4 -28 34 -43 92 -45 212 -40 325
12 72 34 139 98 322 304 97 110 148 158 243 229 17 12 13 39 -57 433 -40 231
-135 766 -210 1190 -75 423 -138 771 -140 773 -2 3 -6 -6 -10 -19z"/>
<path d="M1143 2216 c-91 -24 -297 -108 -320 -129 -6 -7 -15 -36 -19 -65 l-7
-53 89 44 c153 76 227 99 340 105 120 5 193 -14 289 -77 33 -22 61 -38 62 -37
1 1 -2 31 -9 67 -13 76 -41 108 -128 140 -86 32 -187 34 -297 5z"/>
<path d="M1153 2100 c-52 -11 -205 -71 -294 -116 -45 -22 -68 -40 -72 -56 -4
-12 -5 -24 -3 -25 2 -2 43 16 92 41 121 60 205 87 294 93 127 9 258 -38 374
-132 31 -25 57 -45 59 -45 2 0 -1 25 -7 56 -9 54 -13 59 -68 100 -32 23 -84
53 -116 64 -64 25 -192 34 -259 20z"/>
<path d="M1062 2004 c-30 -8 -61 -19 -70 -25 -15 -9 -14 -10 3 -4 11 4 54 9
95 12 157 11 316 -57 478 -202 29 -26 55 -46 57 -43 2 2 0 21 -5 43 -15 68
-149 171 -277 214 -74 25 -200 27 -281 5z"/>
<path d="M1020 1960 c-20 -6 -15 -8 25 -9 74 -1 189 -36 283 -86 82 -44 249
-163 286 -204 26 -28 34 -26 28 7 -6 35 -48 79 -146 153 -141 107 -249 150
-375 148 -42 -1 -87 -5 -101 -9z"/>
<path d="M940 1921 c0 -4 28 -11 63 -14 140 -13 323 -104 539 -267 106 -80
118 -87 118 -66 0 40 -143 162 -300 256 -116 69 -217 100 -331 100 -49 0 -89
-4 -89 -9z"/>
<path d="M858 1890 c-15 -4 -36 -14 -47 -23 -19 -13 -12 -15 81 -20 166 -9
314 -69 543 -222 61 -40 139 -96 175 -124 35 -27 66 -48 68 -46 2 2 1 17 -3
34 -8 36 -94 111 -251 217 -219 149 -442 221 -566 184z"/>
<path d="M1799 1793 c15 -68 27 -95 81 -174 35 -52 97 -143 138 -204 41 -60
84 -123 96 -139 l20 -30 7 28 c7 24 -3 45 -67 145 -42 64 -118 186 -171 271
-123 200 -126 203 -104 103z"/>
<path d="M800 1833 c-30 -6 -40 -19 -40 -54 0 -26 1 -26 93 -31 193 -11 454
-135 765 -365 41 -30 76 -52 79 -49 3 3 2 25 -3 48 -8 37 -19 50 -84 100 -331
257 -627 385 -810 351z"/>
<path d="M747 1719 c-3 -13 -9 -45 -12 -70 l-7 -46 104 -5 c206 -11 446 -124
791 -372 60 -43 110 -77 112 -74 3 3 -23 140 -28 143 -1 1 -39 29 -84 63 -131
99 -319 218 -427 272 -145 71 -243 101 -352 107 -90 6 -91 5 -97 -18z"/>
<path d="M3250 1653 c-67 -45 -144 -121 -266 -259 -162 -184 -198 -216 -294
-263 -65 -31 -87 -36 -160 -39 -67 -3 -96 0 -139 17 -30 11 -58 18 -63 15 -4
-3 -8 -21 -8 -39 0 -29 6 -39 38 -59 107 -69 241 -74 365 -13 78 38 132 90
335 317 56 64 125 133 153 155 28 22 60 47 71 55 18 14 19 23 13 73 -4 31 -10
57 -14 57 -4 0 -18 -8 -31 -17z"/>
<path d="M1834 1621 c5 -34 24 -66 90 -150 45 -58 109 -141 141 -185 33 -43
61 -73 63 -67 2 6 -10 28 -26 49 -16 20 -71 100 -122 177 -52 77 -107 158
-123 180 l-30 40 7 -44z"/>
<path d="M744 1584 c-19 -4 -24 -19 -39 -95 -10 -49 -16 -92 -13 -94 2 -2 31
3 63 12 109 28 281 -1 450 -77 98 -44 299 -165 439 -266 65 -46 120 -83 121
-82 2 2 -2 32 -8 68 l-12 64 -75 57 c-247 186 -531 345 -687 387 -79 22 -200
34 -239 26z"/>
<path d="M1856 1508 c10 -34 36 -67 100 -128 l57 -55 -78 103 c-43 56 -80 102
-82 102 -2 0 -1 -10 3 -22z"/>
<path d="M3243 1491 c-61 -49 -165 -156 -287 -298 -59 -68 -121 -128 -157
-152 -149 -100 -294 -113 -426 -40 -59 33 -63 34 -63 18 0 -26 138 -115 218
-139 82 -25 137 -25 215 1 128 43 215 112 384 303 63 72 136 149 161 172 42
39 44 43 38 80 -14 79 -18 94 -26 94 -4 0 -30 -17 -57 -39z"/>
<path d="M1870 1433 c0 -14 23 -40 90 -99 l55 -49 -52 60 c-61 71 -93 102 -93
88z"/>
<path d="M736 1386 c-21 -8 -42 -18 -47 -23 -8 -8 -60 -255 -55 -260 1 -1 23
13 49 31 80 57 143 79 239 84 207 11 433 -83 769 -320 54 -37 99 -68 101 -68
3 0 0 27 -5 60 l-10 60 -111 79 c-269 190 -419 275 -587 332 -113 38 -275 50
-343 25z"/>
<path d="M1880 1371 c0 -8 125 -123 175 -160 11 -8 -20 26 -70 77 -86 88 -105
103 -105 83z"/>
<path d="M3254 1297 c-38 -41 -105 -114 -149 -163 -109 -121 -186 -187 -275
-233 -114 -59 -219 -73 -307 -40 -45 17 -22 -3 31 -26 129 -57 235 -53 366 12
59 30 97 60 180 143 153 152 250 267 250 294 0 36 -12 86 -20 86 -4 0 -38 -33
-76 -73z"/>
<path d="M1898 1295 c3 -17 36 -51 104 -105 54 -44 101 -80 103 -80 3 0 5 8 4
18 0 14 -183 181 -208 190 -5 1 -6 -9 -3 -23z"/>
<path d="M1913 1220 c4 -14 7 -33 7 -42 0 -17 149 -138 169 -138 6 0 11 12 11
28 0 27 -28 54 -154 148 l-40 29 7 -25z"/>
<path d="M3234 1105 c-133 -154 -231 -238 -331 -286 -56 -27 -85 -34 -158 -38
l-90 -6 50 -15 c29 -9 90 -15 146 -15 90 0 99 2 170 37 100 50 182 119 280
235 80 96 81 97 74 141 -14 96 -11 97 -141 -53z"/>
<path d="M872 1199 c-67 -11 -152 -53 -205 -100 l-41 -36 -32 -173 c-18 -96
-32 -175 -31 -177 2 -1 39 36 82 84 140 152 262 213 429 213 170 0 366 -76
615 -240 68 -44 125 -79 127 -77 9 9 -10 100 -24 113 -30 30 -331 224 -422
272 -191 101 -366 143 -498 121z"/>
<path d="M1946 1054 c8 -36 17 -70 20 -75 6 -10 90 -69 98 -69 2 0 7 15 11 33
4 17 9 39 11 48 3 12 -18 34 -70 73 -41 31 -77 56 -79 56 -3 0 2 -30 9 -66z"/>
<path d="M3300 993 c-100 -114 -176 -178 -263 -221 -89 -43 -170 -57 -248 -43
-35 6 -65 9 -67 7 -11 -12 113 -39 194 -43 162 -9 279 41 412 176 l83 84 -7
46 c-15 101 -10 101 -104 -6z"/>
<path d="M957 985 c-116 -32 -222 -107 -327 -230 -33 -39 -60 -73 -60 -77 0
-5 62 -8 138 -8 l137 0 75 45 c192 116 383 116 629 -1 84 -40 101 -44 167 -44
41 0 74 3 74 8 0 8 -170 120 -265 175 -207 120 -426 171 -568 132z"/>
<path d="M2300 960 c0 -22 239 -185 367 -251 66 -33 86 -39 138 -38 l60 0 -85
28 c-137 45 -262 114 -412 228 -59 45 -68 49 -68 33z"/>
<path d="M1970 941 c0 -37 26 -120 43 -139 25 -27 33 -20 42 39 6 43 5 47 -27
70 -47 36 -58 42 -58 30z"/>
<path d="M2290 903 c0 -24 17 -39 109 -105 157 -113 190 -130 248 -126 l48 3
-77 43 c-42 24 -131 81 -197 127 -67 47 -123 85 -126 85 -3 0 -5 -12 -5 -27z"/>
<path d="M3330 850 c-82 -83 -153 -130 -240 -158 l-55 -17 107 -3 c127 -3 139
2 229 86 l62 58 -7 57 c-4 31 -10 56 -14 55 -4 -1 -41 -36 -82 -78z"/>
<path d="M2271 809 c-6 -29 -8 -56 -4 -59 5 -4 32 -24 62 -44 50 -34 58 -36
132 -36 44 0 79 2 79 4 0 3 -44 35 -97 72 -54 37 -112 78 -130 91 l-31 24 -11
-52z"/>
<path d="M1103 776 c-64 -15 -203 -81 -203 -97 0 -5 155 -9 347 -9 221 0 344
3 337 10 -14 14 -151 69 -215 85 -86 23 -195 27 -266 11z"/>
<path d="M3405 760 c-16 -16 -44 -40 -62 -52 -18 -13 -33 -26 -33 -30 0 -5 34
-8 76 -8 l76 0 -7 43 c-14 78 -17 82 -50 47z"/>
<path d="M2006 753 c11 -54 16 -59 25 -29 5 19 4 35 -3 43 -18 22 -29 15 -22
-14z"/>
<path d="M2256 723 c-3 -3 -6 -17 -6 -30 0 -20 5 -23 40 -23 22 0 40 3 40 6 0
15 -65 56 -74 47z"/>
<path d="M556 461 c-35 -7 -47 -31 -17 -31 20 0 21 -5 21 -145 0 -135 -1 -145
-20 -155 -33 -18 -13 -30 50 -30 57 0 87 14 56 26 -23 9 -23 146 0 168 25 25
63 20 74 -10 16 -42 13 -151 -5 -158 -35 -13 -11 -26 50 -26 51 0 65 3 65 15
0 8 -7 15 -15 15 -12 0 -15 16 -15 84 0 69 -4 88 -21 110 -26 33 -84 36 -123
5 l-26 -20 0 80 c0 89 1 89 -74 72z"/>
<path d="M2346 461 c-35 -7 -45 -26 -16 -34 19 -5 20 -13 20 -146 0 -131 -1
-141 -20 -151 -33 -18 -13 -30 50 -30 57 0 87 14 56 26 -12 5 -16 22 -16 76 0
85 11 108 51 108 22 0 32 -6 39 -26 16 -41 12 -140 -5 -154 -28 -23 -16 -30
50 -30 51 0 65 3 65 15 0 8 -6 15 -14 15 -11 0 -15 21 -18 89 -2 70 -7 93 -22
110 -25 28 -84 28 -120 0 l-26 -20 0 80 c0 89 1 89 -74 72z"/>
<path d="M1328 443 c-58 -4 -76 -16 -38 -26 19 -5 20 -14 20 -145 0 -131 -1
-140 -20 -145 -11 -3 -20 -10 -20 -16 0 -8 26 -11 83 -9 46 2 82 7 82 13 0 6
-10 11 -22 13 -20 3 -23 9 -23 51 l0 48 49 6 c90 11 131 47 131 117 0 58 -70
103 -155 98 -16 -1 -56 -3 -87 -5z m145 -54 c37 -46 11 -113 -50 -125 l-33 -6
0 82 0 83 33 -7 c17 -3 40 -16 50 -27z"/>
<path d="M177 398 c9 -82 22 -89 46 -28 13 35 20 40 46 40 l31 0 0 -135 c0
-135 0 -136 -25 -145 -52 -20 -26 -31 63 -28 51 2 86 7 85 13 -1 6 -11 11 -23
13 -19 3 -20 10 -20 143 l0 139 29 0 c24 0 31 -6 45 -40 9 -22 20 -40 25 -40
11 0 21 35 21 78 l0 32 -164 0 -164 0 5 -42z"/>
<path d="M2163 400 c-13 -5 -23 -18 -23 -29 0 -11 -9 -22 -20 -26 -11 -3 -20
-11 -20 -16 0 -5 9 -9 20 -9 18 0 20 -7 20 -88 0 -105 13 -132 65 -132 40 0
85 16 85 30 0 5 -14 10 -30 10 -39 0 -52 31 -48 114 3 61 3 61 36 64 46 5 43
32 -3 32 -32 0 -35 2 -35 30 0 32 -9 35 -47 20z"/>
<path d="M925 341 c-57 -24 -83 -117 -51 -179 33 -63 139 -84 192 -39 l27 24
-55 -5 c-47 -4 -59 -1 -77 17 -11 11 -21 30 -21 41 0 17 8 19 78 22 l77 3 -1
39 c-2 56 -38 86 -102 85 -26 0 -56 -4 -67 -8z m93 -64 c-3 -29 -6 -32 -38
-32 -28 0 -36 4 -38 22 -2 12 6 31 18 43 30 30 62 11 58 -33z"/>
<path d="M1650 339 c-32 -13 -32 -11 -19 -48 13 -36 28 -36 46 -1 23 47 68 49
79 4 10 -38 -2 -54 -39 -54 -100 0 -148 -60 -92 -115 30 -31 73 -32 108 -5
l25 20 5 -22 c5 -18 10 -20 49 -14 51 8 68 21 39 31 -19 6 -21 14 -21 90 0
107 -15 125 -99 124 -31 0 -67 -5 -81 -10z m110 -148 c0 -34 -20 -54 -52 -49
-15 2 -24 11 -26 26 -5 32 15 52 49 52 25 0 29 -4 29 -29z"/>
<path d="M1913 343 c-26 -5 -30 -21 -8 -29 12 -5 15 -25 15 -95 0 -72 -3 -89
-15 -89 -8 0 -15 -7 -15 -15 0 -12 14 -15 70 -15 53 0 70 3 70 14 0 7 -9 16
-20 19 -17 4 -20 14 -20 62 0 77 11 95 60 95 32 0 40 4 40 18 0 35 -16 47 -45
34 -14 -6 -28 -19 -31 -27 -9 -24 -24 -18 -24 10 0 26 -16 30 -77 18z"/>
<path d="M2714 340 c-41 -16 -64 -59 -64 -116 0 -45 5 -59 29 -86 28 -31 34
-33 95 -33 53 0 69 4 86 21 l21 21 -54 -5 c-46 -4 -58 -1 -76 17 -11 11 -21
30 -21 41 0 17 8 19 78 22 l77 3 -1 39 c-2 56 -38 86 -102 85 -26 0 -57 -4
-68 -9z m94 -63 c-3 -29 -6 -32 -38 -32 -28 0 -36 4 -38 22 -2 12 6 31 18 43
30 30 62 11 58 -33z"/>
<path d="M2943 343 c-26 -5 -30 -18 -8 -27 12 -4 15 -25 15 -95 0 -70 -3 -90
-15 -95 -35 -13 -11 -26 49 -26 62 0 94 14 62 26 -22 8 -23 156 -2 173 25 21
69 9 77 -19 13 -48 10 -137 -6 -150 -28 -23 -16 -30 50 -30 51 0 65 3 65 15 0
8 -6 15 -14 15 -11 0 -15 21 -18 91 -3 81 -6 93 -27 110 -31 25 -82 24 -115
-2 l-26 -20 0 20 c0 17 -6 21 -32 20 -18 -1 -43 -4 -55 -6z"/>
<path d="M3313 330 c-17 -10 -37 -28 -42 -39 -16 -30 -13 -113 5 -139 52 -75
200 -67 238 13 30 63 10 142 -43 169 -42 22 -119 20 -158 -4z m121 -32 c19
-26 21 -106 4 -143 -11 -25 -38 -32 -72 -19 -34 13 -42 113 -14 167 13 25 63
22 82 -5z"/>
<path d="M3583 343 c-26 -5 -30 -18 -8 -27 12 -4 15 -25 15 -95 0 -70 -3 -90
-15 -95 -35 -13 -11 -26 50 -26 51 0 65 3 65 15 0 8 -4 15 -10 15 -6 0 -10 33
-10 79 0 87 10 105 57 99 l28 -3 3 -87 c2 -56 -1 -88 -8 -88 -5 0 -10 -7 -10
-15 0 -12 14 -15 65 -15 61 0 85 13 50 26 -11 5 -15 23 -15 74 0 77 -14 126
-40 140 -31 16 -85 12 -107 -9 -21 -20 -21 -20 -26 0 -5 19 -29 23 -84 12z"/>
</g>
</svg>
